<svg xmlns="http://www.w3.org/2000/svg" width="1200" height="235" viewBox="0 0 1200 235"><rect width="1196" height="231" x="2" y="2" rx="20" fill="#0b1b30" stroke="#2e5877" stroke-width="3"/><text x="38" y="60" fill="#e6f7ff" font-family="Arial" font-weight="bold" font-size="31">CONTRIBUTION ACTIVITY</text><text x="39" y="95" fill="#a2c5dc" font-family="Arial" font-size="19">Explore my live contribution calendar on GitHub</text><g fill="#174063"><rect x="40" y="119" width="16" height="15" rx="3"/><rect x="40" y="140" width="16" height="15" rx="3"/><rect x="40" y="161" width="16" height="15" rx="3"/><rect x="40" y="182" width="16" height="15" rx="3"/><rect x="62" y="119" width="16" height="15" rx="3"/><rect x="62" y="140" width="16" height="15" rx="3"/><rect x="62" y="161" width="16" height="15" rx="3"/><rect x="62" y="182" width="16" height="15" rx="3"/><rect x="84" y="119" width="16" height="15" rx="3"/><rect x="84" y="140" width="16" height="15" rx="3"/><rect x="84" y="161" width="16" height="15" rx="3"/><rect x="84" y="182" width="16" height="15" rx="3"/><rect x="106" y="119" width="16" height="15" rx="3"/><rect x="106" y="140" width="16" height="15" rx="3"/><rect x="106" y="161" width="16" height="15" rx="3"/><rect x="106" y="182" width="16" height="15" rx="3"/><rect x="128" y="119" width="16" height="15" rx="3"/><rect x="128" y="140" width="16" height="15" rx="3"/><rect x="128" y="161" width="16" height="15" rx="3"/><rect x="128" y="182" width="16" height="15" rx="3"/><rect x="150" y="119" width="16" height="15" rx="3"/><rect x="150" y="140" width="16" height="15" rx="3"/><rect x="150" y="161" width="16" height="15" rx="3"/><rect x="150" y="182" width="16" height="15" rx="3"/><rect x="172" y="119" width="16" height="15" rx="3"/><rect x="172" y="140" width="16" height="15" rx="3"/><rect x="172" y="161" width="16" height="15" rx="3"/><rect x="172" y="182" width="16" height="15" rx="3"/><rect x="194" y="119" width="16" height="15" rx="3"/><rect x="194" y="140" width="16" height="15" rx="3"/><rect x="194" y="161" width="16" height="15" rx="3"/><rect x="194" y="182" width="16" height="15" rx="3"/><rect x="216" y="119" width="16" height="15" rx="3"/><rect x="216" y="140" width="16" height="15" rx="3"/><rect x="216" y="161" width="16" height="15" rx="3"/><rect x="216" y="182" width="16" height="15" rx="3"/><rect x="238" y="119" width="16" height="15" rx="3"/><rect x="238" y="140" width="16" height="15" rx="3"/><rect x="238" y="161" width="16" height="15" rx="3"/><rect x="238" y="182" width="16" height="15" rx="3"/><rect x="260" y="119" width="16" height="15" rx="3"/><rect x="260" y="140" width="16" height="15" rx="3"/><rect x="260" y="161" width="16" height="15" rx="3"/><rect x="260" y="182" width="16" height="15" rx="3"/><rect x="282" y="119" width="16" height="15" rx="3"/><rect x="282" y="140" width="16" height="15" rx="3"/><rect x="282" y="161" width="16" height="15" rx="3"/><rect x="282" y="182" width="16" height="15" rx="3"/><rect x="304" y="119" width="16" height="15" rx="3"/><rect x="304" y="140" width="16" height="15" rx="3"/><rect x="304" y="161" width="16" height="15" rx="3"/><rect x="304" y="182" width="16" height="15" rx="3"/><rect x="326" y="119" width="16" height="15" rx="3"/><rect x="326" y="140" width="16" height="15" rx="3"/><rect x="326" y="161" width="16" height="15" rx="3"/><rect x="326" y="182" width="16" height="15" rx="3"/><rect x="348" y="119" width="16" height="15" rx="3"/><rect x="348" y="140" width="16" height="15" rx="3"/><rect x="348" y="161" width="16" height="15" rx="3"/><rect x="348" y="182" width="16" height="15" rx="3"/><rect x="370" y="119" width="16" height="15" rx="3"/><rect x="370" y="140" width="16" height="15" rx="3"/><rect x="370" y="161" width="16" height="15" rx="3"/><rect x="370" y="182" width="16" height="15" rx="3"/><rect x="392" y="119" width="16" height="15" rx="3"/><rect x="392" y="140" width="16" height="15" rx="3"/><rect x="392" y="161" width="16" height="15" rx="3"/><rect x="392" y="182" width="16" height="15" rx="3"/><rect x="414" y="119" width="16" height="15" rx="3"/><rect x="414" y="140" width="16" height="15" rx="3"/><rect x="414" y="161" width="16" height="15" rx="3"/><rect x="414" y="182" width="16" height="15" rx="3"/><rect x="436" y="119" width="16" height="15" rx="3"/><rect x="436" y="140" width="16" height="15" rx="3"/><rect x="436" y="161" width="16" height="15" rx="3"/><rect x="436" y="182" width="16" height="15" rx="3"/><rect x="458" y="119" width="16" height="15" rx="3"/><rect x="458" y="140" width="16" height="15" rx="3"/><rect x="458" y="161" width="16" height="15" rx="3"/><rect x="458" y="182" width="16" height="15" rx="3"/><rect x="480" y="119" width="16" height="15" rx="3"/><rect x="480" y="140" width="16" height="15" rx="3"/><rect x="480" y="161" width="16" height="15" rx="3"/><rect x="480" y="182" width="16" height="15" rx="3"/><rect x="502" y="119" width="16" height="15" rx="3"/><rect x="502" y="140" width="16" height="15" rx="3"/><rect x="502" y="161" width="16" height="15" rx="3"/><rect x="502" y="182" width="16" height="15" rx="3"/><rect x="524" y="119" width="16" height="15" rx="3"/><rect x="524" y="140" width="16" height="15" rx="3"/><rect x="524" y="161" width="16" height="15" rx="3"/><rect x="524" y="182" width="16" height="15" rx="3"/><rect x="546" y="119" width="16" height="15" rx="3"/><rect x="546" y="140" width="16" height="15" rx="3"/><rect x="546" y="161" width="16" height="15" rx="3"/><rect x="546" y="182" width="16" height="15" rx="3"/><rect x="568" y="119" width="16" height="15" rx="3"/><rect x="568" y="140" width="16" height="15" rx="3"/><rect x="568" y="161" width="16" height="15" rx="3"/><rect x="568" y="182" width="16" height="15" rx="3"/><rect x="590" y="119" width="16" height="15" rx="3"/><rect x="590" y="140" width="16" height="15" rx="3"/><rect x="590" y="161" width="16" height="15" rx="3"/><rect x="590" y="182" width="16" height="15" rx="3"/><rect x="612" y="119" width="16" height="15" rx="3"/><rect x="612" y="140" width="16" height="15" rx="3"/><rect x="612" y="161" width="16" height="15" rx="3"/><rect x="612" y="182" width="16" height="15" rx="3"/><rect x="634" y="119" width="16" height="15" rx="3"/><rect x="634" y="140" width="16" height="15" rx="3"/><rect x="634" y="161" width="16" height="15" rx="3"/><rect x="634" y="182" width="16" height="15" rx="3"/><rect x="656" y="119" width="16" height="15" rx="3"/><rect x="656" y="140" width="16" height="15" rx="3"/><rect x="656" y="161" width="16" height="15" rx="3"/><rect x="656" y="182" width="16" height="15" rx="3"/><rect x="678" y="119" width="16" height="15" rx="3"/><rect x="678" y="140" width="16" height="15" rx="3"/><rect x="678" y="161" width="16" height="15" rx="3"/><rect x="678" y="182" width="16" height="15" rx="3"/><rect x="700" y="119" width="16" height="15" rx="3"/><rect x="700" y="140" width="16" height="15" rx="3"/><rect x="700" y="161" width="16" height="15" rx="3"/><rect x="700" y="182" width="16" height="15" rx="3"/><rect x="722" y="119" width="16" height="15" rx="3"/><rect x="722" y="140" width="16" height="15" rx="3"/><rect x="722" y="161" width="16" height="15" rx="3"/><rect x="722" y="182" width="16" height="15" rx="3"/><rect x="744" y="119" width="16" height="15" rx="3"/><rect x="744" y="140" width="16" height="15" rx="3"/><rect x="744" y="161" width="16" height="15" rx="3"/><rect x="744" y="182" width="16" height="15" rx="3"/><rect x="766" y="119" width="16" height="15" rx="3"/><rect x="766" y="140" width="16" height="15" rx="3"/><rect x="766" y="161" width="16" height="15" rx="3"/><rect x="766" y="182" width="16" height="15" rx="3"/><rect x="788" y="119" width="16" height="15" rx="3"/><rect x="788" y="140" width="16" height="15" rx="3"/><rect x="788" y="161" width="16" height="15" rx="3"/><rect x="788" y="182" width="16" height="15" rx="3"/><rect x="810" y="119" width="16" height="15" rx="3"/><rect x="810" y="140" width="16" height="15" rx="3"/><rect x="810" y="161" width="16" height="15" rx="3"/><rect x="810" y="182" width="16" height="15" rx="3"/><rect x="832" y="119" width="16" height="15" rx="3"/><rect x="832" y="140" width="16" height="15" rx="3"/><rect x="832" y="161" width="16" height="15" rx="3"/><rect x="832" y="182" width="16" height="15" rx="3"/><rect x="854" y="119" width="16" height="15" rx="3"/><rect x="854" y="140" width="16" height="15" rx="3"/><rect x="854" y="161" width="16" height="15" rx="3"/><rect x="854" y="182" width="16" height="15" rx="3"/><rect x="876" y="119" width="16" height="15" rx="3"/><rect x="876" y="140" width="16" height="15" rx="3"/><rect x="876" y="161" width="16" height="15" rx="3"/><rect x="876" y="182" width="16" height="15" rx="3"/><rect x="898" y="119" width="16" height="15" rx="3"/><rect x="898" y="140" width="16" height="15" rx="3"/><rect x="898" y="161" width="16" height="15" rx="3"/><rect x="898" y="182" width="16" height="15" rx="3"/><rect x="920" y="119" width="16" height="15" rx="3"/><rect x="920" y="140" width="16" height="15" rx="3"/><rect x="920" y="161" width="16" height="15" rx="3"/><rect x="920" y="182" width="16" height="15" rx="3"/><rect x="942" y="119" width="16" height="15" rx="3"/><rect x="942" y="140" width="16" height="15" rx="3"/><rect x="942" y="161" width="16" height="15" rx="3"/><rect x="942" y="182" width="16" height="15" rx="3"/><rect x="964" y="119" width="16" height="15" rx="3"/><rect x="964" y="140" width="16" height="15" rx="3"/><rect x="964" y="161" width="16" height="15" rx="3"/><rect x="964" y="182" width="16" height="15" rx="3"/><rect x="986" y="119" width="16" height="15" rx="3"/><rect x="986" y="140" width="16" height="15" rx="3"/><rect x="986" y="161" width="16" height="15" rx="3"/><rect x="986" y="182" width="16" height="15" rx="3"/><rect x="1008" y="119" width="16" height="15" rx="3"/><rect x="1008" y="140" width="16" height="15" rx="3"/><rect x="1008" y="161" width="16" height="15" rx="3"/><rect x="1008" y="182" width="16" height="15" rx="3"/><rect x="1030" y="119" width="16" height="15" rx="3"/><rect x="1030" y="140" width="16" height="15" rx="3"/><rect x="1030" y="161" width="16" height="15" rx="3"/><rect x="1030" y="182" width="16" height="15" rx="3"/><rect x="1052" y="119" width="16" height="15" rx="3"/><rect x="1052" y="140" width="16" height="15" rx="3"/><rect x="1052" y="161" width="16" height="15" rx="3"/><rect x="1052" y="182" width="16" height="15" rx="3"/><rect x="1074" y="119" width="16" height="15" rx="3"/><rect x="1074" y="140" width="16" height="15" rx="3"/><rect x="1074" y="161" width="16" height="15" rx="3"/><rect x="1074" y="182" width="16" height="15" rx="3"/><rect x="1096" y="119" width="16" height="15" rx="3"/><rect x="1096" y="140" width="16" height="15" rx="3"/><rect x="1096" y="161" width="16" height="15" rx="3"/><rect x="1096" y="182" width="16" height="15" rx="3"/><rect x="1118" y="119" width="16" height="15" rx="3"/><rect x="1118" y="140" width="16" height="15" rx="3"/><rect x="1118" y="161" width="16" height="15" rx="3"/><rect x="1118" y="182" width="16" height="15" rx="3"/></g><g fill="#27c2de"><rect x="84" y="161" width="16" height="15" rx="3"/><rect x="150" y="182" width="16" height="15" rx="3"/><rect x="216" y="119" width="16" height="15" rx="3"/><rect x="282" y="140" width="16" height="15" rx="3"/><rect x="348" y="161" width="16" height="15" rx="3"/><rect x="414" y="182" width="16" height="15" rx="3"/><rect x="480" y="119" width="16" height="15" rx="3"/><rect x="546" y="140" width="16" height="15" rx="3"/><rect x="612" y="161" width="16" height="15" rx="3"/><rect x="678" y="182" width="16" height="15" rx="3"/><rect x="744" y="119" width="16" height="15" rx="3"/><rect x="810" y="140" width="16" height="15" rx="3"/><rect x="876" y="161" width="16" height="15" rx="3"/><rect x="942" y="182" width="16" height="15" rx="3"/><rect x="1008" y="119" width="16" height="15" rx="3"/><rect x="1074" y="140" width="16" height="15" rx="3"/></g></svg>